<?xml version="1.0" encoding="utf-8"?>
<!-- Generator: Adobe Illustrator 18.0.0, SVG Export Plug-In . SVG Version: 6.00 Build 0)  -->
<svg version="1.1" id="Layer_1" xmlns="http://www.w3.org/2000/svg" xmlns:xlink="http://www.w3.org/1999/xlink" x="0px" y="0px"
	 viewBox="0 0 23.7 8.9" enable-background="new 0 0 23.7 8.9" xml:space="preserve">
<g>
	<g>
		<path fill="#FFFFFF" d="M23.6,5.7c0-0.1-0.3-0.1-0.3-0.1s0-0.6-0.3-0.9c-0.5-0.5-2.2-0.9-2.6-0.9c-0.4-0.1-2-0.5-2.5-0.6
			c-0.4-0.2-3.5-2.4-3.9-2.6c-0.3-0.1-2-0.4-2.6-0.5C10.8,0,8.9-0.1,7.9,0.2C7.5,0.3,3.4,2.3,3.4,2.3L2.1,2.4C1.8,2.4,1,2.5,0.9,2.6
			C0.6,2.9,0.8,4.9,0.8,4.9C0.7,5,0.1,5,0,5.1c-0.1,0.2,0.2,1.9,0.3,2c0,0.1,2.3,0.4,3.2,0.5c0-0.2-0.1-0.3-0.1-0.5
			c0-1.3,1-2.3,2.3-2.3c1.3,0,2.3,1,2.3,2.3c0,0.2,0,0.4-0.1,0.6c2.6,0,5.9,0.1,7.6,0.1c-0.1-0.2-0.1-0.5-0.1-0.7
			c0-1.3,1-2.3,2.3-2.3c1.3,0,2.3,1,2.3,2.3c0,0.2,0,0.4-0.1,0.5c1.4-0.1,2.7-0.2,2.7-0.2c0.1,0,0.6-0.1,0.7-0.3
			C23.7,6.9,23.7,5.8,23.6,5.7z M14.5,3.2c-0.7-0.1-4-0.3-4.4-0.3c-0.4,0-3.3-0.3-3.4-0.3c0,0,1.4-1.5,1.9-1.7
			c0.6-0.1,1.8-0.1,2.2,0c0.5,0,2,0.2,2.5,0.5c0.5,0.3,3,1.8,3,1.9C16.5,3.4,15.2,3.3,14.5,3.2z M5.8,5.4C4.8,5.4,4,6.1,4,7.1
			c0,1,0.8,1.8,1.8,1.8c1,0,1.8-0.8,1.8-1.8C7.5,6.1,6.7,5.4,5.8,5.4z M17.8,5.4c-1,0-1.8,0.8-1.8,1.8c0,1,0.8,1.8,1.8,1.8
			c1,0,1.8-0.8,1.8-1.8C19.6,6.1,18.8,5.4,17.8,5.4z"/>
	</g>
</g>
</svg>
