<?xml version="1.0" encoding="utf-8"?>
<!-- Generator: Adobe Illustrator 18.0.0, SVG Export Plug-In . SVG Version: 6.00 Build 0)  -->
<svg version="1.1" id="Layer_1" xmlns="http://www.w3.org/2000/svg" xmlns:xlink="http://www.w3.org/1999/xlink" x="0px" y="0px"
	 viewBox="0 0 22.4 11.7" enable-background="new 0 0 22.4 11.7" xml:space="preserve">
<g>
	<g>
		<path fill="#FFFFFF" d="M7.6,2.5H7.4v0.8h0.2C7.9,3.3,8,3.1,8,2.8C8,2.6,7.9,2.5,7.6,2.5z M11.9,2.5h-0.2v0.8h0.2
			c0.2,0,0.4-0.1,0.4-0.4C12.3,2.6,12.1,2.5,11.9,2.5z M4.8,2.5c-0.4,0-0.5,0.4-0.5,1.1c0,0.7,0.1,1.1,0.5,1.1
			c0.3,0,0.5-0.3,0.5-1.1C5.4,3,5.3,2.5,4.8,2.5z M21,0H1.5C0.7,0,0,0.7,0,1.5v4.2c0,0.8,0.7,1.5,1.5,1.5h8.8v4.6h2V7.1H21
			c0.8,0,1.5-0.7,1.5-1.5V1.5C22.4,0.7,21.8,0,21,0z M3.2,2.5h-1v0.8h1v0.6h-1v1.4H1.5V1.9h1.7V2.5z M4.8,5.3
			c-0.6,0-1.3-0.5-1.3-1.8c0-1.2,0.7-1.7,1.3-1.7c0.6,0,1.3,0.5,1.3,1.8C6.1,4.9,5.4,5.3,4.8,5.3z M8.1,5.3L7.9,4.6
			C7.7,3.9,7.7,3.8,7.4,3.8v1.4H6.6V1.9h1.1c0.7,0,1.1,0.4,1.1,1c0,0.4-0.2,0.6-0.6,0.8c0.3,0.2,0.4,0.9,0.7,1.7H8.1z M12.4,5.3
			l-0.2-0.6c-0.2-0.7-0.3-0.8-0.6-0.8v1.4h-0.7V1.9H12c0.7,0,1.1,0.4,1.1,1c0,0.4-0.2,0.6-0.6,0.8c0.3,0.2,0.4,0.9,0.7,1.7H12.4z
			 M15.5,5.3h-2V1.9h1.9v0.6h-1.2v0.8h1.1v0.6h-1.1v0.9h1.2V5.3z M18.3,5.3h-0.7l-0.9-2h0v2H16V1.9h0.7l0.9,1.9h0V1.9h0.7V5.3z
			 M21,2.5h-0.7v2.8h-0.7V2.5h-0.7V1.9H21V2.5z"/>
	</g>
</g>
</svg>
